<?xml version="1.0" encoding="UTF-8"?>
<svg version="1.1" xmlns="http://www.w3.org/2000/svg" width="396" height="267">
<path d="M0 0 C130.68 0 261.36 0 396 0 C396 88.11 396 176.22 396 267 C265.32 267 134.64 267 0 267 C0 178.89 0 90.78 0 0 Z " fill="#FEFEFE" transform="translate(0,0)"/>
<path d="M0 0 C5.27572043 3.24659719 8.936213 7.42716712 11.75 12.9375 C12.4287689 17.09495951 11.92971295 20.86661046 11.25 25 C9.6676994 25.33820166 8.08410625 25.67035939 6.5 26 C5.61828125 26.185625 4.7365625 26.37125 3.828125 26.5625 C1.25 27 1.25 27 -2.75 27 C-3.4193723 24.20895657 -4.08561092 21.41722977 -4.75 18.625 C-4.94078125 17.8309375 -5.1315625 17.036875 -5.328125 16.21875 C-5.59882812 15.07792969 -5.59882812 15.07792969 -5.875 13.9140625 C-6.04257813 13.2123291 -6.21015625 12.5105957 -6.3828125 11.78759766 C-6.75 10 -6.75 10 -6.75 8 C-8.07 8 -9.39 8 -10.75 8 C-11.74 13.94 -12.73 19.88 -13.75 26 C-18.11510896 26.87302179 -19.88579329 27.0435999 -24 26.1875 C-24.87140625 26.01605469 -25.7428125 25.84460938 -26.640625 25.66796875 C-27.33671875 25.44753906 -28.0328125 25.22710937 -28.75 25 C-30.80830279 20.88339443 -30.04866381 16.27893074 -28.75 12 C-26.49514054 6.45455615 -21.82814516 2.88317418 -16.828125 -0.17578125 C-11.52965631 -2.27724157 -5.36879139 -1.43167771 0 0 Z " fill="#CC0C2F" transform="translate(75.75,114)"/>
<path d="M0 0 C3.75126922 1.69388707 5.6470037 4.45873901 7.875 7.875 C9.46533147 12.29258742 9.93205911 15.66122204 8.15625 20.1171875 C6.09433577 23.92058334 4.1749093 26.32960939 0.125 28 C-4.33371943 29.27152974 -8.51214093 30.15894056 -12.88671875 28.12109375 C-17.42038373 25.24121851 -19.59009032 22.2871613 -21 17 C-21.2690858 12.18168247 -20.69506453 8.3768226 -17.625 4.5625 C-12.12537115 -0.8061853 -7.42188855 -0.95227935 0 0 Z " fill="#0C0C0C" transform="translate(175,119)"/>
<path d="M0 0 C4.67464828 1.64478365 7.66023801 3.59044855 10 8 C10.79300574 14.42423754 10.94032918 19.63856849 7 25 C2.45694155 28.36186326 -1.10748198 29.7361784 -6.7890625 29.4453125 C-10.67197315 28.66324216 -13.32291349 26.88022587 -16 24 C-18.71323654 19.27371699 -19.69002318 15.42161068 -19 10 C-14.44312865 1.39257635 -9.46611115 -1.24594079 0 0 Z " fill="#0B0B0B" transform="translate(300,119)"/>
<path d="M0 0 C2.68125 -0.0825 5.3625 -0.165 8.125 -0.25 C8.95789551 -0.28641602 9.79079102 -0.32283203 10.64892578 -0.36035156 C15.90410752 -0.43809465 18.85351331 0.49628176 23 4 C26.11970695 8.67956042 25.7087144 13.52554283 25 19 C23.42002116 22.42764006 21.18044147 24.38448409 17.8125 26.140625 C14.23741682 27.23301153 10.88082445 27.21617327 7.1875 27.125 C4.815625 27.08375 2.44375 27.0425 0 27 C0 18.09 0 9.18 0 0 Z " fill="#040404" transform="translate(220,120)"/>
<path d="M0 0 C2.7225 -0.04125 5.445 -0.0825 8.25 -0.125 C9.10110352 -0.14320801 9.95220703 -0.16141602 10.82910156 -0.18017578 C17.97113618 -0.23261611 17.97113618 -0.23261611 21 2 C22.52491998 5.04983996 22.23562548 7.6423369 22 11 C20.5 12.9375 20.5 12.9375 19 14 C19.99 14.66 20.98 15.32 22 16 C23 19.3125 23 19.3125 23 23 C20.98930005 25.84200766 19.43037412 27.72879096 15.89990234 28.39819336 C13.47195317 28.49224262 11.11495721 28.43607089 8.6875 28.3125 C4.3871875 28.1578125 4.3871875 28.1578125 0 28 C0 18.76 0 9.52 0 0 Z " fill="#0A0A0A" transform="translate(99,119)"/>
<path d="M0 0 C2.31 0 4.62 0 7 0 C8.92578125 2.1875 8.92578125 2.1875 10.3125 5 C11.16806579 6.68769142 12.0546107 8.36093496 13 10 C13.66 10 14.32 10 15 10 C16.47245079 7.44714413 17.77110114 4.83044276 19.07421875 2.1875 C19.70972656 1.465625 20.34523438 0.74375 21 0 C23.31 0 25.62 0 28 0 C28 9.24 28 18.48 28 28 C26.02 28 24.04 28 22 28 C21.67 22.72 21.34 17.44 21 12 C20.071875 13.32 19.14375 14.64 18.1875 16 C16.60546875 18.25 16.60546875 18.25 15 20 C14.01 20 13.02 20 12 20 C10.02002775 17.5013308 8.60045753 14.76835896 7 12 C6.67 17.28 6.34 22.56 6 28 C4.02 28 2.04 28 0 28 C0 18.76 0 9.52 0 0 Z " fill="#0A0A0A" transform="translate(315,119)"/>
<path d="M0 0 C2.8875 -0.103125 5.775 -0.20625 8.75 -0.3125 C10.10496582 -0.38078003 10.10496582 -0.38078003 11.48730469 -0.45043945 C17.39627589 -0.55279646 17.39627589 -0.55279646 20.546875 2.33203125 C22.32931298 5.60462571 22.61256699 7.32459805 22 11 C20.125 13.875 20.125 13.875 18 16 C17.34 16 16.68 16 16 16 C17.98 19.63 19.96 23.26 22 27 C19.69 27 17.38 27 15 27 C14.69707031 26.36191406 14.39414063 25.72382813 14.08203125 25.06640625 C13.66308594 24.24011719 13.24414062 23.41382813 12.8125 22.5625 C12.40644531 21.73878906 12.00039062 20.91507813 11.58203125 20.06640625 C10.13366813 17.75309288 10.13366813 17.75309288 7.32421875 17.21484375 C6.55722656 17.14394531 5.79023438 17.07304687 5 17 C5 20.3 5 23.6 5 27 C3.35 27 1.7 27 0 27 C0 18.09 0 9.18 0 0 Z " fill="#040404" transform="translate(128,120)"/>
<path d="M0 0 C2.64 0 5.28 0 8 0 C9.42842911 3.66452852 10.85247676 7.33072569 12.27246094 10.99853516 C12.99441847 12.86060415 13.71985238 14.72132407 14.4453125 16.58203125 C14.89648438 17.74863281 15.34765625 18.91523438 15.8125 20.1171875 C16.23144531 21.19597168 16.65039062 22.27475586 17.08203125 23.38623047 C18 26 18 26 18 28 C15.69 28 13.38 28 11 28 C10.67 26.68 10.34 25.36 10 24 C6.04 24 2.08 24 -2 24 C-2.66 25.32 -3.32 26.64 -4 28 C-5.98 28 -7.96 28 -10 28 C-9.37933273 24.49033037 -8.46669668 21.31272739 -7.1875 17.98828125 C-6.83429688 17.06595703 -6.48109375 16.14363281 -6.1171875 15.19335938 C-5.74851563 14.24267578 -5.37984375 13.29199219 -5 12.3125 C-4.63132813 11.35021484 -4.26265625 10.38792969 -3.8828125 9.39648438 C-1.16636588 2.33273176 -1.16636588 2.33273176 0 0 Z " fill="#0C0C0C" transform="translate(196,119)"/>
<path d="M0 0 C2.64947757 1.08985602 4.62783344 2.34979717 7 4 C6.67 5.32 6.34 6.64 6 8 C2 8 2 8 -1 6 C-4.83693587 5.58142518 -7.11203064 5.45355731 -10.4375 7.5 C-12.63828902 11.02126244 -12.80414661 13.95439643 -12 18 C-10.60314994 20.6469872 -10.60314994 20.6469872 -8 22 C-2.98257813 22.63858096 -0.07918916 21.96668302 4 19 C4.99 19.99 5.98 20.98 7 22 C6.0195412 24.58484592 5.06077857 25.94843031 2.9375 27.75 C-1.13047336 29.48105249 -4.64216379 29.69940581 -9 29 C-14.11762818 26.34641502 -17.17705942 23.46882174 -19 18 C-19.50201239 11.87544882 -19.09928344 8.87482354 -15 4 C-10.69987597 -0.80602097 -6.09271206 -0.98391623 0 0 Z " fill="#0D0D0D" transform="translate(269,119)"/>
<path d="M0 0 C0.33 0 0.66 0 1 0 C1.12117188 0.61488281 1.24234375 1.22976562 1.3671875 1.86328125 C1.53476563 2.67152344 1.70234375 3.47976562 1.875 4.3125 C2.11863281 5.51326172 2.11863281 5.51326172 2.3671875 6.73828125 C2.94478999 9.25301118 2.94478999 9.25301118 5 12 C9.05445642 12.43132515 10.54970958 12.30019361 14 10 C15.32 10 16.64 10 18 10 C17.4340344 13.44047512 16.41638065 14.91074477 13.75 17.125 C13.16734375 17.62257812 12.5846875 18.12015625 11.984375 18.6328125 C6.39300419 22.48513491 0.59968095 22.91508181 -6 22 C-10.63853411 20.06599325 -14.85594079 16.93007401 -18 13 C-18 12.01 -18 11.02 -18 10 C-12.125 10.875 -12.125 10.875 -11 12 C-9.00041636 12.04080783 -6.99954746 12.04254356 -5 12 C-2.94356259 8.07407404 -1.31061591 4.23429756 0 0 Z " fill="#CC0E2E" transform="translate(67,132)"/>
<path d="M0 0 C3.97245401 0.70936679 5.67231707 1.79731707 8.5 4.625 C10.06935594 7.76371188 9.85201103 10.16355822 9.5 13.625 C7.51216563 16.54463173 6.0685303 18.23602978 2.5625 19.10546875 C-1.40015906 19.38315509 -3.16411401 18.85592162 -6.5 16.5625 C-9.04356454 12.82663958 -9.27894903 11.06500949 -8.5 6.625 C-6.52929243 2.66622179 -4.46142948 0.79668384 0 0 Z " fill="#F6F6F6" transform="translate(295.5,123.375)"/>
<path d="M0 0 C2.69990662 1.79993774 4.5418865 3.083773 6 6 C6.48602588 10.29322859 6.46241608 12.32082639 4 15.9375 C0.66411401 18.23092162 -1.09984094 18.75815509 -5.0625 18.48046875 C-8.5685303 17.61102978 -10.01216563 15.91963173 -12 13 C-12.69151325 8.69725091 -12.51557405 6.79054688 -10.125 3.125 C-6.79974618 -0.20025382 -4.65430991 -0.45630489 0 0 Z " fill="#F6F6F6" transform="translate(172,124)"/>
<path d="M0 0 C9 0 9 0 12 1.5 C14.68109473 4.85136842 15.45830154 7.72251898 15 12 C13.23535939 14.85993478 12.00434303 16.49782849 9 18 C6.03 18 3.06 18 0 18 C0 12.06 0 6.12 0 0 Z " fill="#EDEDED" transform="translate(225,124)"/>
<path d="M0 0 C1.45792884 -0.05399736 2.91642712 -0.09279177 4.375 -0.125 C5.18710938 -0.14820312 5.99921875 -0.17140625 6.8359375 -0.1953125 C9 0 9 0 11 2 C10.44444444 6.55555556 10.44444444 6.55555556 9 8 C7.48071962 8.07179964 5.95832518 8.08392007 4.4375 8.0625 C3.61121094 8.05347656 2.78492188 8.04445312 1.93359375 8.03515625 C1.29550781 8.02355469 0.65742188 8.01195312 0 8 C0 5.36 0 2.72 0 0 Z " fill="#EAEAEA" transform="translate(133,124)"/>
<path d="M0 0 C1.62463842 -0.05395478 3.24978541 -0.09277195 4.875 -0.125 C5.77992187 -0.14820312 6.68484375 -0.17140625 7.6171875 -0.1953125 C10 0 10 0 12 2 C11.46428571 5.53571429 11.46428571 5.53571429 10 7 C8.31391034 7.07205511 6.62499341 7.08386068 4.9375 7.0625 C4.01839844 7.05347656 3.09929687 7.04445312 2.15234375 7.03515625 C1.44207031 7.02355469 0.73179688 7.01195312 0 7 C0 4.69 0 2.38 0 0 Z " fill="#D8D8D8" transform="translate(104,124)"/>
<path d="M0 0 C3.3 0 6.6 0 10 0 C10.38218767 1.65614657 10.71395102 3.32457024 11 5 C10 6 10 6 7.71484375 6.09765625 C6.34005859 6.08025391 6.34005859 6.08025391 4.9375 6.0625 C4.01839844 6.05347656 3.09929687 6.04445312 2.15234375 6.03515625 C1.44207031 6.02355469 0.73179688 6.01195312 0 6 C0 4.02 0 2.04 0 0 Z " fill="#F9F9F9" transform="translate(105,136)"/>
<path d="M0 0 C2.56529454 1.28264727 2.66499863 2.22772349 3.625 4.875 C3.88539063 5.57367188 4.14578125 6.27234375 4.4140625 6.9921875 C5 9 5 9 5 12 C2.36 12 -0.28 12 -3 12 C-2.68950274 10.56206608 -2.3765224 9.1246682 -2.0625 7.6875 C-1.88847656 6.88699219 -1.71445313 6.08648437 -1.53515625 5.26171875 C-1 3 -1 3 0 0 Z " fill="#E7E7E7" transform="translate(199,125)"/>
<path d="M0 0 C0 1.65 0 3.3 0 5 C-1.8125 5.6875 -1.8125 5.6875 -4 6 C-5.75 4.5625 -5.75 4.5625 -7 3 C-6.67 2.01 -6.34 1.02 -6 0 C-3.50907189 -1.24546405 -2.58919267 -0.7767578 0 0 Z " fill="#A9A9A9" transform="translate(354,119)"/>
</svg>
