<?xml version="1.0" encoding="UTF-8"?>
<svg version="1.1" xmlns="http://www.w3.org/2000/svg" width="275" height="183">
<path d="M0 0 C90.75 0 181.5 0 275 0 C275 60.39 275 120.78 275 183 C184.25 183 93.5 183 0 183 C0 122.61 0 62.22 0 0 Z " fill="#FEFEFE" transform="translate(0,0)"/>
<path d="M0 0 C1.075345 -0.0087616 2.15069 -0.01752319 3.25862122 -0.02655029 C6.81149704 -0.04854815 10.36312725 -0.03398886 13.91601562 -0.01708984 C16.38554117 -0.02045783 18.8550651 -0.0253103 21.32458496 -0.03158569 C26.49959092 -0.03895761 31.6741653 -0.02824045 36.84912109 -0.00488281 C43.48405052 0.0236042 50.11796871 0.00720207 56.75286102 -0.02274513 C61.85210801 -0.04080892 66.95111507 -0.03506408 72.05036926 -0.02210617 C74.49681213 -0.01876966 76.94327675 -0.02286775 79.38969421 -0.03450394 C82.80856054 -0.04719657 86.22578713 -0.02785493 89.64453125 0 C91.16268181 -0.01518173 91.16268181 -0.01518173 92.71150208 -0.03067017 C97.08181474 0.03532848 99.65581291 0.24556568 103.45117188 2.53152466 C106.17527568 7.06726946 106.00695732 10.93885466 105.9375 16.14111328 C105.94304901 17.19695114 105.94859802 18.252789 105.95431519 19.34062195 C105.96612007 22.82861803 105.94182607 26.31531753 105.91601562 29.80322266 C105.9143047 32.22790467 105.91437001 34.65258853 105.9161377 37.07727051 C105.91448396 42.15813907 105.89577511 47.23856668 105.86425781 52.31933594 C105.82458063 58.83300753 105.82021236 65.34610141 105.82772064 71.85987091 C105.83078977 76.8664479 105.81867174 81.87289495 105.80158997 86.87944031 C105.79455723 89.28121628 105.79143576 91.68300697 105.7922821 94.08479309 C105.790485 97.44107697 105.76910942 100.79666791 105.7421875 104.15283203 C105.7451181 105.14623093 105.74804871 106.13962982 105.75106812 107.16313171 C105.64348818 115.85300331 105.64348818 115.85300331 102.32226562 119.64697266 C99.38373736 121.42982194 97.19078093 121.89983622 93.77479553 121.91439819 C92.41429329 121.92719315 92.41429329 121.92719315 91.02630615 121.94024658 C90.03866272 121.93934021 89.05101929 121.93843384 88.03344727 121.9375 C86.46453987 121.94757584 86.46453987 121.94757584 84.86393738 121.95785522 C81.40338401 121.97686699 77.94302422 121.98076088 74.48242188 121.98291016 C72.07872945 121.98933526 69.67503781 121.9960634 67.27134705 122.00308228 C62.23174221 122.01506258 57.19220597 122.01876226 52.15258789 122.01757812 C45.6915536 122.01737476 39.23095829 122.04469231 32.77002811 122.07912254 C27.8055163 122.10134616 22.84111096 122.10541707 17.87655449 122.10435867 C15.49429243 122.10672088 13.1120277 122.11557908 10.72981453 122.13102341 C7.39972174 122.15059331 4.07058634 122.14488037 0.74047852 122.1328125 C-0.24514069 122.14405151 -1.23075989 122.15529053 -2.24624634 122.16687012 C-6.58587257 122.12685674 -9.00638047 122.06112741 -12.76637268 119.74160767 C-15.47683504 116.77124922 -15.80443396 115.18305882 -15.83163452 111.26408386 C-15.84023499 110.34300339 -15.84883545 109.42192291 -15.85769653 108.47293091 C-15.86195648 107.45939545 -15.86621643 106.44585999 -15.87060547 105.40161133 C-15.87878296 104.33645798 -15.88696045 103.27130463 -15.89538574 102.1738739 C-15.92026469 98.63756885 -15.93676133 95.10130398 -15.95117188 91.56494141 C-15.95649555 90.35943445 -15.96181923 89.1539275 -15.96730423 87.91189003 C-15.99404541 81.53249369 -16.01341811 75.15311701 -16.02783203 68.77368164 C-16.04449109 62.17577952 -16.08927739 55.57837581 -16.14020348 48.98066235 C-16.17381432 43.9149364 -16.18540271 38.8493297 -16.19105911 33.78350258 C-16.19778754 31.35097757 -16.21305055 28.91846084 -16.23694992 26.48604393 C-16.26847351 23.08378515 -16.26865694 19.6828833 -16.26123047 16.28051758 C-16.2776358 15.27305481 -16.29404114 14.26559204 -16.3109436 13.2276001 C-16.27194409 8.86964099 -16.07701047 6.31435051 -13.80862427 2.52281189 C-9.22285441 -0.22470314 -5.2575104 -0.05257589 0 0 Z " fill="#0B66C2" transform="translate(81.677734375,30.35302734375)"/>
<path d="M0 0 C0.71454346 0.00902344 1.42908691 0.01804687 2.1652832 0.02734375 C7.79927065 0.21352716 10.91841917 0.69831704 15.125 4.4375 C19.16138618 9.63474659 21.25799063 14.22068657 21.23852539 20.83886719 C21.23844986 21.6994574 21.23837433 22.56004761 21.23829651 23.44671631 C21.23313522 24.36664368 21.22797394 25.28657104 21.22265625 26.234375 C21.2212413 27.18314514 21.21982635 28.13191528 21.21836853 29.10943604 C21.21277742 32.13548962 21.20022652 35.16146883 21.1875 38.1875 C21.18248385 40.24088435 21.17792115 42.29426986 21.17382812 44.34765625 C21.16281089 49.37763276 21.14555233 54.40755378 21.125 59.4375 C15.185 59.4375 9.245 59.4375 3.125 59.4375 C3.08761719 56.82457031 3.05023438 54.21164063 3.01171875 51.51953125 C2.96546961 48.98095464 2.91424836 46.4425235 2.86254883 43.90405273 C2.82935346 42.14372645 2.80130476 40.38329512 2.77856445 38.62280273 C2.7449188 36.08792475 2.6925994 33.55400477 2.63671875 31.01953125 C2.63032883 30.23600784 2.6239389 29.45248444 2.61735535 28.6452179 C2.49614923 24.11156631 2.00617285 21.01238536 -0.875 17.4375 C-4.24557117 16.53155349 -7.45624796 16.81539922 -10.875 17.4375 C-13.45137471 19.32265223 -14.47167428 20.63084857 -15.875 23.4375 C-16.03176775 26.13405446 -16.13336315 28.80879977 -16.19140625 31.5078125 C-16.21218735 32.30404022 -16.23296844 33.10026794 -16.25437927 33.92062378 C-16.31984149 36.46782685 -16.37874415 39.01513425 -16.4375 41.5625 C-16.4806884 43.28777127 -16.52430279 45.01303193 -16.56835938 46.73828125 C-16.67632245 50.97124872 -16.77542007 55.20429371 -16.875 59.4375 C-22.815 59.4375 -28.755 59.4375 -34.875 59.4375 C-34.875 40.2975 -34.875 21.1575 -34.875 1.4375 C-29.265 1.4375 -23.655 1.4375 -17.875 1.4375 C-17.545 3.7475 -17.215 6.0575 -16.875 8.4375 C-16.318125 7.674375 -15.76125 6.91125 -15.1875 6.125 C-10.7339269 0.94922586 -6.6807184 -0.09937617 0 0 Z " fill="#FCFDFE" transform="translate(147.875,74.5625)"/>
<path d="M0 0 C5.94 0 11.88 0 18 0 C18 19.14 18 38.28 18 58 C12.06 58 6.12 58 0 58 C0 38.86 0 19.72 0 0 Z " fill="#FBFCFE" transform="translate(84,76)"/>
<path d="M0 0 C2.89048729 1.58191659 5.04354008 3.34078867 7 6 C8.07151578 9.92633997 7.36701913 13.155856 5.75 16.875 C2.91552381 20.31686394 1.03513776 20.86581548 -3.375 21.4375 C-8.11973172 20.86485997 -9.86582008 19.58191991 -13 16 C-14.06111908 13.25125004 -14.34920887 10.92533986 -14 8 C-12.39182692 4.78365384 -11.02289934 2.75012618 -8.125 0.625 C-5.08121189 -0.2702318 -3.17633722 -0.49824898 0 0 Z " fill="#F9FBFD" transform="translate(96,47)"/>
<path d="M0 0 C4.10703441 0.85563217 5.55401113 2.24378009 8 5.625 C8.63127485 9.62307408 8.67917484 11.63235985 6.375 15 C3.43721938 17.01006043 1.5603504 17.55233979 -2 17.625 C-6.56521739 15.49456522 -6.56521739 15.49456522 -8 12.625 C-8.49512681 8.25137986 -8.49223866 6.30544756 -5.875 2.6875 C-3 0.625 -3 0.625 0 0 Z " fill="#AFC8E8" transform="translate(201,135.375)"/>
<path d="M0 0 C1.875 0.3125 1.875 0.3125 4 1 C6.56687367 4.8503105 5.83288724 6.58569763 5 11 C4.01 11 3.02 11 2 11 C1.15545644 7.62182575 0.89155081 5.32534757 2 2 C1.34 2 0.68 2 0 2 C0 1.34 0 0.68 0 0 Z " fill="#F3F6FB" transform="translate(202,138)"/>
<path d="M0 0 C1.98 0 3.96 0 6 0 C6 2.97 6 5.94 6 9 C4.35 7.68 2.7 6.36 1 5 C0.67 6.32 0.34 7.64 0 9 C0 6.03 0 3.06 0 0 Z " fill="#5F91D3" transform="translate(198,140)"/>
</svg>
