<?xml version="1.0" encoding="UTF-8"?>
<svg version="1.1" xmlns="http://www.w3.org/2000/svg" width="413" height="108">
<path d="M0 0 C136.29 0 272.58 0 413 0 C413 35.64 413 71.28 413 108 C276.71 108 140.42 108 0 108 C0 72.36 0 36.72 0 0 Z " fill="#FCFCFC" transform="translate(0,0)"/>
<path d="M0 0 C31.35 0 62.7 0 95 0 C95 31.35 95 62.7 95 95 C63.65 95 32.3 95 0 95 C0 63.65 0 32.3 0 0 Z " fill="#223F49" transform="translate(0,0)"/>
<path d="M0 0 C28.05 0 56.1 0 85 0 C85 9.57 85 19.14 85 29 C83.515 28.505 83.515 28.505 82 28 C81.71125 27.195625 81.4225 26.39125 81.125 25.5625 C80.22749812 22.82444833 80.22749812 22.82444833 77.6875 21.6875 C74.9774283 20.99422584 72.78300312 20.76808307 70 21 C69.505 21.495 69.505 21.495 69 22 C63.65346535 22.35643564 63.65346535 22.35643564 60.9375 20.875 C58.92401315 19.69975654 58.92401315 19.69975654 56.4375 20.875 C55.2309375 21.431875 55.2309375 21.431875 54 22 C53.01 22 52.02 22 51 22 C50.814375 23.670625 50.814375 23.670625 50.625 25.375 C50 29 50 29 48 31 C44.875 31.125 44.875 31.125 42 31 C40.5117754 35.4646738 39.68279703 38.44966247 41 43 C41.6875 45.625 41.6875 45.625 42 48 C41.34 48.99 40.68 49.98 40 51 C40.26656572 53.93443402 40.26656572 53.93443402 41 57 C41.185625 57.94875 41.37125 58.8975 41.5625 59.875 C41.706875 60.57625 41.85125 61.2775 42 62 C43.3921875 61.8453125 43.3921875 61.8453125 44.8125 61.6875 C45.864375 61.790625 46.91625 61.89375 48 62 C50.04308411 64.60669352 50.95446418 66.86339253 52 70 C56.85004136 72.77145221 60.58053175 71.60486706 65.75 70.3125 C66.4925 70.209375 67.235 70.10625 68 70 C68.66 70.66 69.32 71.32 70 72 C71.92432719 72.06109256 71.92432719 72.06109256 74 71.6875 C75.051875 71.53861328 75.051875 71.53861328 76.125 71.38671875 C78.07960396 71.06741546 78.07960396 71.06741546 80 70 C80.309375 69.01 80.61875 68.02 80.9375 67 C81.288125 66.01 81.63875 65.02 82 64 C82.99 63.67 83.98 63.34 85 63 C85 70.26 85 77.52 85 85 C56.95 85 28.9 85 0 85 C0 72.46 0 59.92 0 47 C1.32 47.33 2.64 47.66 4 48 C4.33 49.32 4.66 50.64 5 52 C10.00391813 51.754394 10.00391813 51.754394 13.9375 49 C17.00869793 46.02186868 19.79248946 46.40717844 24 46 C26.58181006 43.41818994 26.30016654 41.41376319 26.65625 37.91015625 C27 36 27 36 28.4375 34 C30 33 30 33 32 33 C31.754394 27.99608187 31.754394 27.99608187 29 24.0625 C26.02186868 20.99130207 26.40717844 18.20751054 26 14 C23.58707195 11.58707195 22.85882638 11.76572986 19.5625 11.625 C17.109375 11.41796875 17.109375 11.41796875 15 11 C13.3125 8.9375 13.3125 8.9375 12 7 C9 6.33333333 9 6.33333333 6 7 C4.29467677 8.94009522 4.29467677 8.94009522 3 11 C2.01 11 1.02 11 0 11 C0 7.37 0 3.74 0 0 Z " fill="#F5D701" transform="translate(5,5)"/>
<path d="M0 0 C1.65 0 3.3 0 5 0 C5 17.16 5 34.32 5 52 C3.35 51.67 1.7 51.34 0 51 C-0.33 50.01 -0.66 49.02 -1 48 C-1.5775 48.66 -2.155 49.32 -2.75 50 C-7.68364569 53.03608965 -12.35486726 52.86436314 -18 52 C-21.99809869 50.31208674 -24.12668622 47.25481963 -25.875 43.375 C-28.27821634 35.73363548 -27.93382098 28.02021565 -24.25 20.8828125 C-22.18957729 17.77930079 -20.43108645 16.46138867 -17 15 C-12.21878032 14.33999215 -8.33826443 14.37183506 -3.9375 16.4375 C-2 18 -2 18 -1 19 C-0.67 12.73 -0.34 6.46 0 0 Z " fill="#1F3C4D" transform="translate(258,38)"/>
<path d="M0 0 C5.0693316 0.99182575 9.86452288 0.86151259 14.875 -0.4375 C15.865 -0.1075 16.855 0.2225 17.875 0.5625 C17.9575 1.34625 18.04 2.13 18.125 2.9375 C18.60306339 5.70999104 18.60306339 5.70999104 20.9375 6.875 C21.576875 7.101875 22.21625 7.32875 22.875 7.5625 C21.29932234 11.5573063 18.67364856 13.80445175 15.5 16.625 C14.54351562 17.48222656 13.58703125 18.33945312 12.6015625 19.22265625 C10.41149528 21.10209789 8.21227991 22.87323371 5.875 24.5625 C2.99062221 23.26950306 1.00280579 21.90308637 -1.125 19.5625 C-2.115 19.8925 -3.105 20.2225 -4.125 20.5625 C-2.47408222 24.85488623 0.61254566 27.4418915 3.875 30.5625 C6.80686481 29.2224376 9.04520956 27.70805076 11.44140625 25.55859375 C12.09173828 24.98302734 12.74207031 24.40746094 13.41210938 23.81445312 C14.76647825 22.60113713 16.12064373 21.38759407 17.47460938 20.17382812 C18.12365234 19.59955078 18.77269531 19.02527344 19.44140625 18.43359375 C20.02865479 17.90693115 20.61590332 17.38026855 21.22094727 16.83764648 C22.875 15.5625 22.875 15.5625 25.875 14.5625 C25.875 20.5025 25.875 26.4425 25.875 32.5625 C24.225 33.2225 22.575 33.8825 20.875 34.5625 C18.51546906 36.92203094 18.38358587 38.34145617 17.875 41.5625 C15.5625 42.1875 15.5625 42.1875 12.875 42.5625 C11.885 41.9025 10.895 41.2425 9.875 40.5625 C6.33312169 40.22911404 6.33312169 40.22911404 2.875 40.5625 C2.215 41.2225 1.555 41.8825 0.875 42.5625 C-1.75 42.1875 -1.75 42.1875 -4.125 41.5625 C-4.393125 40.634375 -4.66125 39.70625 -4.9375 38.75 C-6.30550831 35.05744953 -6.30550831 35.05744953 -9.125 32.5625 C-11.73111077 31.84052838 -11.73111077 31.84052838 -14.125 31.5625 C-14.75 29.75 -14.75 29.75 -15.125 27.5625 C-14.135 26.0775 -14.135 26.0775 -13.125 24.5625 C-12.87484127 20.97892759 -12.87484127 20.97892759 -13.125 17.5625 C-13.455 17.2325 -13.785 16.9025 -14.125 16.5625 C-14.16580783 14.56291636 -14.16754356 12.56204746 -14.125 10.5625 C-13.01125 10.10875 -11.8975 9.655 -10.75 9.1875 C-7.16300992 7.83784014 -7.16300992 7.83784014 -5.125 5.5625 C-4.96 4.716875 -4.795 3.87125 -4.625 3 C-4.46 2.195625 -4.295 1.39125 -4.125 0.5625 C-2.125 -0.4375 -2.125 -0.4375 0 0 Z " fill="#F7D801" transform="translate(64.125,30.4375)"/>
<path d="M0 0 C21 0 21 0 27 3 C30.48615227 6.8347675 30.3236048 10.66016268 30.30078125 15.59765625 C29.97471931 18.20191719 29.41425891 19.79638728 28 22 C24.875 24.25 24.875 24.25 22 26 C23.8862031 31.35806047 26.91729272 35.9399771 29.8984375 40.73632812 C33 45.7965072 33 45.7965072 33 48 C30.296875 48.44921875 30.296875 48.44921875 27 48 C25.05634622 45.57043278 23.69263067 43.5142909 22.25 40.8125 C21.86457031 40.13896484 21.47914063 39.46542969 21.08203125 38.77148438 C19.07746264 35.2166698 17.52920821 31.82302052 16 28 C12.37 28 8.74 28 5 28 C5 34.6 5 41.2 5 48 C3.35 48 1.7 48 0 48 C0 32.16 0 16.32 0 0 Z " fill="#1D3B4C" transform="translate(124,42)"/>
<path d="M0 0 C21 0 21 0 27 4 C29.93097803 7.03631973 30.43163816 9.18964491 30.4375 13.375 C30.28487197 18.35200082 29.52631399 21.28809054 26 25 C18.94314797 29.26351477 13.07447641 29.09612472 5 29 C5 35.27 5 41.54 5 48 C3.35 48 1.7 48 0 48 C0 32.16 0 16.32 0 0 Z " fill="#1D3B4B" transform="translate(348,42)"/>
<path d="M0 0 C1.65 0 3.3 0 5 0 C8.66711268 6.87473172 11.4741283 14.03799559 14.26391602 21.29882812 C15.05886783 23.36555703 15.86199082 25.42897393 16.66601562 27.4921875 C19.41099733 34.5780928 21.9954716 41.6620919 24 49 C22.02 49 20.04 49 18 49 C17.16260219 46.8765984 16.33019717 44.7512272 15.5 42.625 C15.0359375 41.44164062 14.571875 40.25828125 14.09375 39.0390625 C13 36 13 36 13 34 C6.07 34 -0.86 34 -8 34 C-8.33 35.98 -8.66 37.96 -9 40 C-9.97265625 42.5546875 -9.97265625 42.5546875 -11.0625 44.875 C-11.60583984 46.04675781 -11.60583984 46.04675781 -12.16015625 47.2421875 C-12.43730469 47.82226562 -12.71445312 48.40234375 -13 49 C-14.65 49 -16.3 49 -18 49 C-17.36868126 43.26448984 -15.32223101 38.31283581 -13.18359375 33.0078125 C-12.80767593 32.06187225 -12.43175812 31.11593201 -12.04444885 30.1413269 C-10.84770535 27.1336281 -9.64273248 24.12930582 -8.4375 21.125 C-7.62250094 19.08094675 -6.8080417 17.03667819 -5.99414062 14.9921875 C-4.0023407 9.99228027 -2.00378193 4.99511645 0 0 Z " fill="#244252" transform="translate(318,41)"/>
<path d="M0 0 C2.67142133 1.91794352 3.31675038 2.7193301 4.4375 5.75 C4.66455078 8.95800781 4.66455078 8.95800781 4.6328125 12.703125 C4.6299826 13.36334656 4.62715271 14.02356812 4.62423706 14.70379639 C4.61308415 16.80271897 4.58798946 18.90120742 4.5625 21 C4.55246384 22.42707715 4.5433391 23.85416102 4.53515625 25.28125 C4.51316111 28.77097328 4.47866536 32.26044423 4.4375 35.75 C3.1175 35.75 1.7975 35.75 0.4375 35.75 C-0.2225 34.43 -0.8825 33.11 -1.5625 31.75 C-2.325625 32.41 -3.08875 33.07 -3.875 33.75 C-8.37708949 36.751393 -13.36049454 36.54969947 -18.5625 35.75 C-22.17941275 33.65219061 -23.24541409 32.70125774 -24.5625 28.75 C-24.92541252 24.83054474 -24.96420179 22.48645328 -23.0625 19 C-16.39328057 12.99770252 -9.07073819 13.36712928 -0.5625 13.75 C-1.2225 10.78 -1.8825 7.81 -2.5625 4.75 C-4.45825251 4.72278824 -6.35411979 4.70350864 -8.25 4.6875 C-9.30574219 4.67589844 -10.36148438 4.66429687 -11.44921875 4.65234375 C-14.28660262 4.74134575 -16.8063919 5.10060162 -19.5625 5.75 C-19.8925 4.43 -20.2225 3.11 -20.5625 1.75 C-14.1577289 -2.40444612 -7.06935525 -2.48047553 0 0 Z " fill="#234050" transform="translate(219.5625,54.25)"/>
<path d="M0 0 C4.70600353 1.68705787 7.25581658 3.83290666 10 8 C11.64204737 11.96828114 11 15.49944319 11 20 C2.75 20 -5.5 20 -14 20 C-12.00467381 28.41419321 -12.00467381 28.41419321 -8.75 31.0625 C-2.92437756 33.04850765 3.03836473 31.83672074 9 31 C8.67 32.65 8.34 34.3 8 36 C2.17883203 37.94038932 -3.97120742 37.76456621 -10 37 C-14.54745284 34.71968307 -17.09300269 31.66282841 -19.5 27.25 C-20.63395571 19.87928788 -21.03277673 13.28668165 -17.21484375 6.65625 C-12.53649078 0.2780453 -7.40410394 -0.68672128 0 0 Z " fill="#254252" transform="translate(180,53)"/>
<path d="M0 0 C1.98 0 3.96 0 6 0 C6.29245605 0.74161377 6.58491211 1.48322754 6.88623047 2.24731445 C8.21221016 5.60381561 9.5435382 8.95816994 10.875 12.3125 C11.56529297 14.06336914 11.56529297 14.06336914 12.26953125 15.84960938 C12.71425781 16.96787109 13.15898437 18.08613281 13.6171875 19.23828125 C14.02565918 20.26993408 14.43413086 21.30158691 14.85498047 22.36450195 C15.97380137 25.15267467 15.97380137 25.15267467 18 28 C21.3 18.76 24.6 9.52 28 0 C29.98 0 31.96 0 34 0 C31.68442169 8.51543731 28.58678483 16.71755794 25.43920898 24.95117188 C24.56015308 27.25615388 23.69300638 29.56539861 22.82617188 31.875 C22.26113764 33.35964959 21.69540657 34.84403421 21.12890625 36.328125 C20.87460342 37.00949524 20.6203006 37.69086548 20.35829163 38.3928833 C18.16924411 44.06022844 15.52813304 49.97615279 10 53 C7.421875 53.29296875 7.421875 53.29296875 4.75 53.1875 C3.41195313 53.14689453 3.41195313 53.14689453 2.046875 53.10546875 C1.37140625 53.07066406 0.6959375 53.03585938 0 53 C0 51.35 0 49.7 0 48 C0.61488281 47.97421875 1.22976563 47.9484375 1.86328125 47.921875 C6.75608206 47.66231528 6.75608206 47.66231528 11 45.5 C14.42309202 36.94226996 12.24723391 30.79193063 8.87109375 22.74023438 C8.28977956 21.3890142 7.70774112 20.03810539 7.125 18.6875 C6.26835814 16.65098703 5.41735234 14.61220429 4.56784058 12.57270813 C3.79809116 10.73298586 3.01488713 8.89891011 2.23095703 7.06518555 C1.27610569 4.68752617 0.51646826 2.49882893 0 0 Z " fill="#264353" transform="translate(268,53)"/>
<path d="M0 0 C4.01838108 0.02874378 4.97472196 0.16713699 8.3125 2.6875 C11.13304356 6.59986688 11.42942409 9.53317645 11.5 14.25 C11.52578125 15.27867188 11.5515625 16.30734375 11.578125 17.3671875 C11.09437073 21.80160162 9.44525725 24.41215388 6 27.1875 C2.46926385 28.71213606 0.05994767 28.85990243 -3.75 28.375 C-6.71941992 26.12787141 -8.35925152 23.79564945 -9.75 20.375 C-11.07127383 8.48353553 -11.07127383 8.48353553 -7.8125 3.625 C-4.90048042 0.44825136 -4.33163732 0.16660144 0 0 Z " fill="#F8F9F9" transform="translate(246.75,57.625)"/>
<path d="M0 0 C3.68145953 1.46314417 6.34930168 3.24435034 8.9375 6.25 C10.34923785 9.90390972 10.67558272 13.17169791 10 17 C7.77915243 21.35944153 5.57923841 24.16830464 1 26 C-3.03205167 26.52026473 -6.52088985 26.86359789 -10.11206055 24.7668457 C-12 23 -12 23 -12.45410156 20.82348633 C-12.4331543 20.00130615 -12.41220703 19.17912598 -12.390625 18.33203125 C-12.37773437 17.43935547 -12.36484375 16.54667969 -12.3515625 15.62695312 C-12.31804688 14.69818359 -12.28453125 13.76941406 -12.25 12.8125 C-12.23195313 11.87212891 -12.21390625 10.93175781 -12.1953125 9.96289062 C-12.1481655 7.64090111 -12.08238231 5.3209631 -12 3 C-4.91875 -0.70267857 -4.91875 -0.70267857 0 0 Z " fill="#ECD004" transform="translate(17,21)"/>
<path d="M0 0 C0.99 0.33 1.98 0.66 3 1 C6.68382769 1.13156527 9.49053585 1.16982138 13 0 C16 2 16 2 16.66015625 4.3125 C16.85931641 5.6428125 16.85931641 5.6428125 17.0625 7 C17.57245397 10.95420137 17.57245397 10.95420137 20 14 C20.0625 16.4375 20.0625 16.4375 19 19 C16.69631264 20.06652192 14.35981813 21.06421005 12 22 C11.46375 22.721875 10.9275 23.44375 10.375 24.1875 C9 26 9 26 6.625 26.625 C2.75239216 25.70295051 1.46540889 23.02012589 -1 20 C-3.67108098 19.04452419 -3.67108098 19.04452419 -6 19 C-6.6875 16.8125 -6.6875 16.8125 -7 14 C-6.02616054 12.31791365 -5.02304948 10.65261839 -4 9 C-3.835 7.783125 -3.67 6.56625 -3.5 5.3125 C-3.335 4.219375 -3.17 3.12625 -3 2 C-2.01 1.34 -1.02 0.68 0 0 Z " fill="#1E3B44" transform="translate(24,55)"/>
<path d="M0 0 C13.125 -0.66964286 13.125 -0.66964286 16.8125 1.875 C19.48311915 5.69017021 19.80394754 8.10618132 19.53125 12.6875 C19 15 19 15 16.6875 17.5625 C11.04615137 20.57996554 6.29564937 20.07406646 0 20 C0 13.4 0 6.8 0 0 Z " fill="#F4F5F6" transform="translate(353,46)"/>
<path d="M0 0 C6.91782256 -0.25621565 11.9254966 -0.43341497 18 3 C19.72515631 6.45031261 19.49677924 10.22716304 19 14 C16.80168636 17.03215675 15.55036806 17.81654398 12 19 C7.99616868 19.13399703 4.0072645 19.04308887 0 19 C0 12.73 0 6.46 0 0 Z " fill="#F5F6F7" transform="translate(129,46)"/>
<path d="M0 0 C11.48881789 -0.37060703 11.48881789 -0.37060703 13.875 1.359375 C15.44722085 3.65219708 15.20001281 5.26649162 15 8 C14.94174417 11.9319135 14.94174417 11.9319135 15.3125 15.5625 C15 19 15 19 13.125 20.9375 C10 22 10 22 0 22 C0 14.74 0 7.48 0 0 Z " fill="#2D4958" transform="translate(242,5)"/>
<path d="M0 0 C1.98 0 3.96 0 6 0 C7.93393388 5.01064686 9.51401513 9.79905294 11 15 C12.32 10.05 13.64 5.1 15 0 C17.31 0 19.62 0 22 0 C22 7.26 22 14.52 22 22 C20.68 22 19.36 22 18 22 C17.67 17.05 17.34 12.1 17 7 C15.68 11.29 14.36 15.58 13 20 C11.68 20 10.36 20 9 20 C7.68 16.04 6.36 12.08 5 8 C4.67 12.29 4.34 16.58 4 21 C2.68 21.33 1.36 21.66 0 22 C0 14.74 0 7.48 0 0 Z " fill="#304B5B" transform="translate(144,5)"/>
<path d="M0 0 C11.17203312 -0.60717571 11.17203312 -0.60717571 14.8125 2.0625 C16.34434396 5.85179823 16.0175577 8.07513459 15 12 C14.01 13.485 14.01 13.485 13 15 C13.33 15.598125 13.66 16.19625 14 16.8125 C15 19 15 19 15 22 C13.125 21.875 13.125 21.875 11 21 C9.75 17.9375 9.75 17.9375 9 15 C7.35 15 5.7 15 4 15 C4 17.31 4 19.62 4 22 C2.68 22 1.36 22 0 22 C0 14.74 0 7.48 0 0 Z " fill="#2D4959" transform="translate(312,5)"/>
<path d="M0 0 C10.08159393 -0.4800759 10.08159393 -0.4800759 13.75 1.4375 C16.06223725 6.17758637 14.61077362 11.16767913 13 16 C13.88319294 19.15020361 13.88319294 19.15020361 15 22 C13.68 22 12.36 22 11 22 C10.608125 21.030625 10.21625 20.06125 9.8125 19.0625 C8.32405113 15.77823609 8.32405113 15.77823609 5.3125 15.125 C4.549375 15.08375 3.78625 15.0425 3 15 C3 16.98 3 18.96 3 21 C2.01 21 1.02 21 0 21 C0 14.07 0 7.14 0 0 Z " fill="#224050" transform="translate(199,5)"/>
<path d="M0 0 C1.65 0 3.3 0 5 0 C5 16.17 5 32.34 5 49 C3.35 49 1.7 49 0 49 C0 32.83 0 16.66 0 0 Z " fill="#1A3849" transform="translate(386,41)"/>
<path d="M0 0 C2.31 0 4.62 0 7 0 C9.44408524 7.3549914 11.47458553 14.2501365 12 22 C11.01 22 10.02 22 9 22 C8.67 19.69 8.34 17.38 8 15 C5.36 15 2.72 15 0 15 C-0.33 16.98 -0.66 18.96 -1 21 C-2.32 21.33 -3.64 21.66 -5 22 C-4.54702053 19.45727525 -4.08779821 16.91594018 -3.625 14.375 C-3.49867188 13.66214844 -3.37234375 12.94929688 -3.2421875 12.21484375 C-2.46899424 8.00094047 -1.46604985 4.04119829 0 0 Z " fill="#2B4757" transform="translate(292,5)"/>
<path d="M0 0 C2.64 0 5.28 0 8 0 C8.8393758 3.10256512 9.6704505 6.20729444 10.5 9.3125 C10.73847656 10.19357422 10.97695312 11.07464844 11.22265625 11.98242188 C11.44824219 12.82998047 11.67382812 13.67753906 11.90625 14.55078125 C12.11572266 15.33106689 12.32519531 16.11135254 12.54101562 16.9152832 C13 19 13 19 13 22 C11.68 22 10.36 22 9 22 C8.67 19.69 8.34 17.38 8 15 C5.36 15 2.72 15 0 15 C-0.33 16.98 -0.66 18.96 -1 21 C-1.99 21 -2.98 21 -4 21 C-3.39700836 13.76410027 -1.8849413 7.00629124 0 0 Z " fill="#294655" transform="translate(178,5)"/>
<path d="M0 0 C0.48867825 7.20800421 0.48867825 7.20800421 -1.8125 10.9375 C-4.71345286 13.67268412 -6.54062522 13.96718752 -10.5 14.25 C-14 14 -14 14 -15.9375 12.9375 C-17.6815774 9.75712356 -17.55944728 7.5431661 -17 4 C-12.15512303 -1.10676222 -6.67857517 -0.42780909 0 0 Z " fill="#F6F7F7" transform="translate(218,72)"/>
<path d="M0 0 C4.62 0 9.24 0 14 0 C14 0.99 14 1.98 14 3 C10.7 3 7.4 3 4 3 C4 4.98 4 6.96 4 9 C6.64 9 9.28 9 12 9 C12 9.99 12 10.98 12 12 C9.36 12 6.72 12 4 12 C4 13.98 4 15.96 4 18 C7.3 18 10.6 18 14 18 C14 19.32 14 20.64 14 22 C9.38 22 4.76 22 0 22 C0 14.74 0 7.48 0 0 Z " fill="#2E4A59" transform="translate(266,5)"/>
<path d="M0 0 C3.44958662 1.72479331 3.93071709 5.83536529 5.125 9.3125 C5.40214844 10.08529297 5.67929687 10.85808594 5.96484375 11.65429688 C7.27662491 15.41193602 8 17.93613641 8 22 C3.05 22 -1.9 22 -7 22 C-4.8262084 14.60910856 -2.46996624 7.29705763 0 0 Z " fill="#EAEDEF" transform="translate(320,48)"/>
<path d="M0 0 C2.4375 1.5625 2.4375 1.5625 4 4 C4.42213381 7.43737531 4.60856522 9.82090489 3 12.9375 C-0.24370507 14.66071832 -3.4161041 14.52265149 -7 14 C-9 13 -9 13 -10 11 C-10.52265149 7.4161041 -10.66071832 4.24370507 -8.9375 1 C-5.82090489 -0.60856522 -3.43737531 -0.42213381 0 0 Z " fill="#1D3A44" transform="translate(17,27)"/>
<path d="M0 0 C2.12890625 0.41796875 2.12890625 0.41796875 4.69140625 2.04296875 C6.12890625 4.41796875 6.12890625 4.41796875 6.12890625 10.41796875 C0.18890625 10.41796875 -5.75109375 10.41796875 -11.87109375 10.41796875 C-10.31048837 2.61494183 -8.01181189 -0.48836415 0 0 Z " fill="#FAFBFB" transform="translate(177.87109375,57.58203125)"/>
<path d="M0 0 C0.99386719 0.02707031 1.98773438 0.05414062 3.01171875 0.08203125 C4.15060547 0.13423828 4.15060547 0.13423828 5.3125 0.1875 C5.3125 1.1775 5.3125 2.1675 5.3125 3.1875 C0.8575 3.6825 0.8575 3.6825 -3.6875 4.1875 C-3.6875 5.1775 -3.6875 6.1675 -3.6875 7.1875 C-3.13320312 7.45304688 -2.57890625 7.71859375 -2.0078125 7.9921875 C-1.28335938 8.34539063 -0.55890625 8.69859375 0.1875 9.0625 C1.26644531 9.58457031 1.26644531 9.58457031 2.3671875 10.1171875 C4.3125 11.1875 4.3125 11.1875 6.3125 13.1875 C6.17191192 16.49131982 5.8901943 18.49426684 3.75 21.0625 C0.16910328 22.71522156 -2.76385835 22.38368208 -6.6875 22.1875 C-7.0175 20.8675 -7.3475 19.5475 -7.6875 18.1875 C-5.0475 18.1875 -2.4075 18.1875 0.3125 18.1875 C0.6425 16.8675 0.9725 15.5475 1.3125 14.1875 C0.75820312 13.92195313 0.20390625 13.65640625 -0.3671875 13.3828125 C-1.09164062 13.02960937 -1.81609375 12.67640625 -2.5625 12.3125 C-3.28179687 11.96445312 -4.00109375 11.61640625 -4.7421875 11.2578125 C-6.6875 10.1875 -6.6875 10.1875 -8.6875 8.1875 C-9.04208018 5.42177458 -9.15734593 3.85285229 -7.5234375 1.5390625 C-4.9589625 -0.34882761 -3.14475881 -0.11099149 0 0 Z " fill="#2B4857" transform="translate(129.6875,4.8125)"/>
<path d="M0 0 C4.95 0 9.9 0 15 0 C15 0.99 15 1.98 15 3 C13.02 3 11.04 3 9 3 C9 8.94 9 14.88 9 21 C8.01 21 7.02 21 6 21 C6 15.06 6 9.12 6 3 C4.02 3 2.04 3 0 3 C0 2.01 0 1.02 0 0 Z " fill="#173647" transform="translate(220,5)"/>
<path d="M0 0 C0.8971875 0.61875 0.8971875 0.61875 1.8125 1.25 C2.4725 1.58 3.1325 1.91 3.8125 2.25 C2.9375 8.125 2.9375 8.125 1.8125 9.25 C-0.52047433 9.29092937 -2.85455225 9.29241723 -5.1875 9.25 C-6.6481285 6.60261084 -7.1875 5.35551666 -7.1875 2.25 C-3.08245508 -1.05684174 -3.08245508 -1.05684174 0 0 Z " fill="#E3CA07" transform="translate(32.1875,62.75)"/>
<path d="M0 0 C2.33294775 -0.04241723 4.66702567 -0.04092937 7 0 C8 1 8 1 8.125 4.5 C8 8 8 8 7 9 C4.66702567 9.04092937 2.33294775 9.04241723 0 9 C0 6.03 0 3.06 0 0 Z " fill="#F7F8F8" transform="translate(202,8)"/>
<path d="M0 0 C2.875 -0.125 2.875 -0.125 6 0 C8 2 8 2 8.25 4.5 C8 7 8 7 6 9 C2.875 9.125 2.875 9.125 0 9 C0 6.03 0 3.06 0 0 Z " fill="#FBFCFC" transform="translate(316,8)"/>
<path d="M0 0 C2.31 0 4.62 0 7 0 C7.38218767 1.65614657 7.71395102 3.32457024 8 5 C7 6 7 6 3.4375 6.0625 C2.303125 6.041875 1.16875 6.02125 0 6 C0 4.02 0 2.04 0 0 Z " fill="#F8F9FA" transform="translate(246,17)"/>
<path d="M0 0 C1.98 0 3.96 0 6 0 C6.38218767 1.65614657 6.71395102 3.32457024 7 5 C6 6 6 6 2.9375 6.0625 C1.4834375 6.0315625 1.4834375 6.0315625 0 6 C0 4.02 0 2.04 0 0 Z " fill="#FDFDFD" transform="translate(246,8)"/>
<path d="M0 0 C0.66 0 1.32 0 2 0 C2.66 2.97 3.32 5.94 4 9 C2.02 9 0.04 9 -2 9 C-1.34 6.03 -0.68 3.06 0 0 Z " fill="#EFF1F3" transform="translate(181,8)"/>
<path d="M0 0 C0.66 0 1.32 0 2 0 C2.33 2.97 2.66 5.94 3 9 C1.35 9 -0.3 9 -2 9 C-1.125 2.25 -1.125 2.25 0 0 Z " fill="#F2F4F5" transform="translate(295,8)"/>
<path d="M0 0 C0.99 0.33 1.98 0.66 3 1 C2.125 6.875 2.125 6.875 1 8 C-1.33297433 8.04092937 -3.66705225 8.04241723 -6 8 C-6 7.01 -6 6.02 -6 5 C-4.35 5 -2.7 5 -1 5 C-0.67 3.35 -0.34 1.7 0 0 Z " fill="#EFD303" transform="translate(33,64)"/>
<path d="M0 0 C1.98 0.495 1.98 0.495 4 1 C3.67 2.32 3.34 3.64 3 5 C1.68 4.67 0.36 4.34 -1 4 C-0.67 2.68 -0.34 1.36 0 0 Z " fill="#30483E" transform="translate(29,65)"/>
</svg>
