<?xml version="1.0" encoding="UTF-8"?>
<svg version="1.1" xmlns="http://www.w3.org/2000/svg" width="238" height="212">
<path d="M0 0 C78.54 0 157.08 0 238 0 C238 69.96 238 139.92 238 212 C159.46 212 80.92 212 0 212 C0 142.04 0 72.08 0 0 Z " fill="#FCFCFC" transform="translate(0,0)"/>
<path d="M0 0 C0.86367187 0.36222656 1.72734375 0.72445313 2.6171875 1.09765625 C9.07693714 3.99374461 13.95143289 8.08557356 19 13 C3.77848101 30.82031491 3.77848101 30.82031491 -4.44921875 37.5703125 C-6.24681775 39.11481807 -6.24681775 39.11481807 -8 42 C-8.66 42 -9.32 42 -10 42 C-10 42.66 -10 43.32 -10 44 C-11.28515625 45.2265625 -11.28515625 45.2265625 -13.0625 46.625 C-16.55451289 49.51031974 -19.43957616 52.67022368 -22.37109375 56.11328125 C-24.46221077 58.53536643 -26.70736313 60.76932629 -29 63 C-29.721875 63.763125 -30.44375 64.52625 -31.1875 65.3125 C-33 67 -33 67 -35 67 C-35.495 68.485 -35.495 68.485 -36 70 C-37.47476216 71.24535471 -38.95340434 72.48692402 -40.46484375 73.6875 C-42.17473529 75.06351572 -42.17473529 75.06351572 -43.875 77.375 C-46.28755554 80.35521566 -48.99033529 82.61741103 -51.91015625 85.0859375 C-54.70728759 87.64779611 -57.0265775 90.51215132 -59.359375 93.49609375 C-61 95 -61 95 -65 95 C-74.39507976 86.31276871 -80.83757652 72.11406801 -81.43359375 59.4140625 C-81.4571308 57.48451811 -81.45794012 55.55457968 -81.4375 53.625 C-81.42920166 52.61203857 -81.42090332 51.59907715 -81.41235352 50.55541992 C-81.08392076 36.0213937 -75.24183307 22.48568624 -65 12 C-47.93568048 -3.63311853 -21.51607703 -10.28589889 0 0 Z " fill="#080A0A" transform="translate(140,19)"/>
<path d="M0 0 C9.02362867 3.79110876 13.43989832 14.84136182 16.97265625 23.33984375 C21.00364934 35.20783735 21.16951899 52.48920438 16 64 C7.86987972 80.33348489 -2.52151855 91.57196343 -20 98 C-34.77750864 102.44260545 -52.33760527 101.63837263 -66.05078125 94.38671875 C-71.45368884 91.08940979 -76.42439372 87.37224601 -81 83 C-81 82.34 -81 81.68 -81 81 C-79.6015625 79.625 -79.6015625 79.625 -77.625 78 C-72.46032265 73.61506967 -67.75245046 68.82222542 -63 64 C-60.59400948 61.5865606 -58.18255716 59.17969974 -55.75390625 56.7890625 C-52.34243277 53.42015642 -48.98890194 50.07670071 -45.9375 46.375 C-43.20562844 43.09675413 -40.1277154 40.39065048 -36.88671875 37.625 C-33.60716686 34.80037559 -30.6627149 31.84910347 -28 28.4375 C-26 26 -26 26 -23.5625 24.0625 C-21.13980831 22.11252864 -19.3747163 20.04705894 -17.44140625 17.62890625 C-15.7979588 15.77167702 -14.01810716 14.22629874 -12.125 12.625 C-7.97403525 9.09628613 -4.50071044 5.16026458 -1 1 C-0.67 0.67 -0.34 0.34 0 0 Z " fill="#159C49" transform="translate(160,35)"/>
<path d="M0 0 C1.73152958 1.07955259 3.46011684 2.16382512 5.1875 3.25 C6.15042969 3.85328125 7.11335938 4.4565625 8.10546875 5.078125 C10.87405327 6.91637545 13.43957951 8.88425949 16 11 C14.16922791 13.04721805 12.31538225 15.05927639 10.4375 17.0625 C9.66696289 17.93358398 9.66696289 17.93358398 8.88085938 18.82226562 C5.96649837 21.8814396 4.83913294 22.97772213 0.46875 23.09375 C-3.14358673 21.9547249 -5.80982358 20.5612309 -8.9375 18.4375 C-9.89527344 17.79683594 -10.85304688 17.15617187 -11.83984375 16.49609375 C-12.55269531 16.00238281 -13.26554687 15.50867188 -14 15 C-9.59156563 9.70987876 -4.92440206 4.81191572 0 0 Z " fill="#F7FBF8" transform="translate(103,102)"/>
<path d="M0 0 C2.51809887 0.74413476 4.75137773 1.5013168 7.0859375 2.6875 C8.04886719 3.16123047 8.04886719 3.16123047 9.03125 3.64453125 C10.9609375 4.875 10.9609375 4.875 14.9609375 8.875 C10.3409375 13.495 5.7209375 18.115 0.9609375 22.875 C-10.2890625 15.77678571 -10.2890625 15.77678571 -14.0390625 12.875 C-12.51135891 9.34015392 -10.43387566 6.84675059 -7.7890625 4.0625 C-7.04140625 3.25167969 -6.29375 2.44085937 -5.5234375 1.60546875 C-3.0390625 -0.125 -3.0390625 -0.125 0 0 Z " fill="#F6F6F6" transform="translate(134.0390625,25.125)"/>
<path d="M0 0 C3.21316236 3.21316236 4.84155976 5.07302805 6.8125 8.9375 C7.25207031 9.77152344 7.69164062 10.60554688 8.14453125 11.46484375 C9.1524215 14.4516966 8.94187376 16.02246359 8 19 C6.5625 20.8125 6.5625 20.8125 5 22 C4.34 22 3.68 22 3 22 C2.731875 22.598125 2.46375 23.19625 2.1875 23.8125 C1.01506533 25.97224808 -0.19369282 27.35790256 -2 29 C-5.83920095 27.5291373 -7.14148718 25.59855296 -9.125 22.0625 C-9.62257812 21.18722656 -10.12015625 20.31195313 -10.6328125 19.41015625 C-11.08398438 18.61480469 -11.53515625 17.81945312 -12 17 C-12.66 16.01 -13.32 15.02 -14 14 C-9.38 9.38 -4.76 4.76 0 0 Z " fill="#F7FBF8" transform="translate(160,45)"/>
<path d="M0 0 C3.01693943 2.85674795 5.40554531 5.82348931 7.75 9.25 C8.67039062 10.58804688 8.67039062 10.58804688 9.609375 11.953125 C10.06828125 12.62859375 10.5271875 13.3040625 11 14 C6.88380164 18.91935902 2.59589638 23.52647956 -2 28 C-5.02810548 26.94016308 -5.96661945 26.05320983 -7.703125 23.28515625 C-8.21359375 22.22167969 -8.7240625 21.15820312 -9.25 20.0625 C-10.03117187 18.47115234 -10.03117187 18.47115234 -10.828125 16.84765625 C-12 14 -12 14 -12 11 C-11.34 11 -10.68 11 -10 11 C-9.731875 10.401875 -9.46375 9.80375 -9.1875 9.1875 C-8.00082594 7.00152146 -6.90400887 5.58667406 -5 4 C-4.34 4 -3.68 4 -3 4 C-3 3.34 -3 2.68 -3 2 C-2.01 1.34 -1.02 0.68 0 0 Z " fill="#F9F9F9" transform="translate(81,76)"/>
<path d="M0 0 C4.55055896 3.81664752 8.84993642 7.74871535 13 12 C11.62050476 15.04976644 10.0355923 17.36732806 7.75 19.8125 C7.18796875 20.43769531 6.6259375 21.06289062 6.046875 21.70703125 C4 23 4 23 1.1015625 22.91015625 C-2.25241914 21.92592738 -4.5334137 20.64739025 -7.375 18.625 C-8.24898438 18.01914063 -9.12296875 17.41328125 -10.0234375 16.7890625 C-10.67570312 16.19867188 -11.32796875 15.60828125 -12 15 C-12 12 -12 12 -9.375 9.08203125 C-8.25750594 7.98449244 -7.13214357 6.89492105 -6 5.8125 C-5.42765625 5.25369141 -4.8553125 4.69488281 -4.265625 4.11914062 C-2.85037212 2.73926907 -1.42602845 1.36873266 0 0 Z " fill="#F6FAF7" transform="translate(122,83)"/>
<path d="M0 0 C3.90285767 1.58667578 6.33520982 4.13350481 9.25 7.125 C10.14203125 8.03507812 11.0340625 8.94515625 11.953125 9.8828125 C12.62859375 10.58148438 13.3040625 11.28015625 14 12 C9.88380164 16.91935902 5.59589638 21.52647956 1 26 C-3.15832974 22.19809852 -6.62004139 18.15832438 -9 13 C-9.0807374 9.44755445 -8.33709741 8.40234207 -6.0625 5.6875 C-4 4 -4 4 -2 4 C-2 3.34 -2 2.68 -2 2 C-1.34 2 -0.68 2 0 2 C0 1.34 0 0.68 0 0 Z " fill="#F6F6F7" transform="translate(97,59)"/>
<path d="M0 0 C4.83722798 1.61240933 6.60174732 5.68173858 9 10 C10.4375 13.5 10.4375 13.5 10 17 C7.29710402 20.35439083 4.26212818 23.19571438 1 26 C-3.56030824 22.19524578 -7.85089392 18.25030379 -12 14 C-10.41332422 10.09714233 -7.86649519 7.66479018 -4.875 4.75 C-3.96492187 3.85796875 -3.05484375 2.9659375 -2.1171875 2.046875 C-1.41851562 1.37140625 -0.71984375 0.6959375 0 0 Z " fill="#F8FBF9" transform="translate(140,65)"/>
<path d="M0 0 C5.35850952 1.07403677 9.6429112 4.92615189 13.875 8.1875 C12.28832422 12.09035767 9.74149519 14.52270982 6.75 17.4375 C5.83992188 18.32953125 4.92984375 19.2215625 3.9921875 20.140625 C2.94417969 21.15382813 2.94417969 21.15382813 1.875 22.1875 C-1.70902695 20.65501951 -4.15350134 18.5200399 -6.9375 15.8125 C-8.15373047 14.65621094 -8.15373047 14.65621094 -9.39453125 13.4765625 C-11.125 11.1875 -11.125 11.1875 -10.88671875 8.8984375 C-10.50966797 8.05152344 -10.50966797 8.05152344 -10.125 7.1875 C-9.465 7.1875 -8.805 7.1875 -8.125 7.1875 C-7.795 6.1975 -7.465 5.2075 -7.125 4.1875 C-4.8799081 1.07891122 -3.8796479 0.23277887 0 0 Z " fill="#FAFAFA" transform="translate(115.125,43.8125)"/>
<path d="M0 0 C0.33 0 0.66 0 1 0 C1.13277344 0.97839844 1.26554687 1.95679688 1.40234375 2.96484375 C1.48838867 3.59559814 1.57443359 4.22635254 1.66308594 4.8762207 C1.8470251 6.25789181 2.0233814 7.64059225 2.19238281 9.02416992 C2.55465331 11.95435975 2.94472742 14.79295686 3.70703125 17.6484375 C4.32332692 20.10475262 4.58346869 21.52138883 4 24 C1.08603693 27.84187309 -2.18807366 31.05022178 -6 34 C-6.66 34 -7.32 34 -8 34 C-8.55352891 21.28933623 -6.91536928 10.82405626 0 0 Z " fill="#EEEEEE" transform="translate(74,45)"/>
<path d="M0 0 C0.68384766 0.00902344 1.36769531 0.01804687 2.07226562 0.02734375 C3.73583287 0.05061042 5.39921631 0.08646833 7.0625 0.125 C4.83007742 5.11976364 1.48684377 8.91952732 -2.9375 12.125 C-6.18142631 12.23882198 -7.87994749 11.90493906 -10.9375 11.125 C-13.60358481 10.7480053 -16.26599345 10.39390287 -18.9375 10.0625 C-20.2710335 9.88561713 -21.60438371 9.707344 -22.9375 9.52734375 C-23.9275 9.39457031 -24.9175 9.26179688 -25.9375 9.125 C-25.9375 8.465 -25.9375 7.805 -25.9375 7.125 C-24.25301982 6.32692802 -22.56473873 5.53687699 -20.875 4.75 C-19.93527344 4.30914063 -18.99554688 3.86828125 -18.02734375 3.4140625 C-11.87470745 0.84722308 -6.67220925 -0.1180922 0 0 Z " fill="#EEEEEE" transform="translate(115.9375,21.875)"/>
<path d="M0 0 C0.66 0 1.32 0 2 0 C2.66251093 12.27485528 0.6672489 22.08770412 -5 33 C-5.66 33 -6.32 33 -7 33 C-7.13277344 32.01 -7.26554688 31.02 -7.40234375 30 C-7.53116943 29.04589233 -7.53116943 29.04589233 -7.66259766 28.07250977 C-7.84654125 26.68574495 -8.02456117 25.29818208 -8.19677734 23.90991211 C-8.55447857 21.0647445 -8.92730764 18.2849719 -9.63671875 15.50390625 C-10.125 13.5625 -10.125 13.5625 -10 10 C-7.70467699 6.86902748 -5.11746725 4.31196782 -2 2 C-1.34 2 -0.68 2 0 2 C0 1.34 0 0.68 0 0 Z " fill="#F0F8F2" transform="translate(170,71)"/>
<path d="M0 0 C2.48433952 0.52325027 4.77401364 1.25800455 7.1875 2.0625 C9.24643621 2.28575814 11.30983653 2.46955759 13.375 2.625 C14.46167969 2.70878906 15.54835937 2.79257813 16.66796875 2.87890625 C17.91513672 2.96978516 17.91513672 2.96978516 19.1875 3.0625 C14.05880798 8.8695029 4.67972922 11.13045235 -2.8125 12.0625 C-6.81937682 12.20785224 -10.80538213 12.1845442 -14.8125 12.0625 C-12.03461578 5.87856678 -7.40684038 -0.82298226 0 0 Z " fill="#F1F8F3" transform="translate(129.8125,115.9375)"/>
<path d="M0 0 C0.99 0.33 1.98 0.66 3 1 C-1.16880353 5.17287818 -5.34798864 9.33525602 -9.52832031 13.49658203 C-17.05200236 20.98761871 -24.57061291 28.48372473 -32.0863533 35.98272896 C-36.63111269 40.51701236 -41.17773806 45.04939278 -45.72851562 49.57763672 C-50.13469742 53.96214494 -54.53602596 58.3514706 -58.93398285 62.74422836 C-60.61162659 64.41817069 -62.29103246 66.09034887 -63.97220612 67.760746 C-66.31586913 70.08996444 -68.65327291 72.42529188 -70.98925781 74.76220703 C-71.68846344 75.45422211 -72.38766907 76.14623718 -73.10806274 76.85922241 C-73.74168732 77.49559631 -74.37531189 78.13197021 -75.02813721 78.78762817 C-75.58117146 79.33881884 -76.1342057 79.8900095 -76.70399857 80.45790291 C-78.23292357 82.0849797 -78.23292357 82.0849797 -79 85 C-79.66 83.68 -80.32 82.36 -81 81 C-80.30777344 80.41605469 -80.30777344 80.41605469 -79.6015625 79.8203125 C-73.77713528 74.82465753 -68.38378609 69.46283025 -63 64 C-60.59400948 61.5865606 -58.18255716 59.17969974 -55.75390625 56.7890625 C-52.34243277 53.42015642 -48.98890194 50.07670071 -45.9375 46.375 C-43.20562844 43.09675413 -40.1277154 40.39065048 -36.88671875 37.625 C-33.60716686 34.80037559 -30.6627149 31.84910347 -28 28.4375 C-26 26 -26 26 -23.5625 24.0625 C-21.13980831 22.11252864 -19.3747163 20.04705894 -17.44140625 17.62890625 C-15.7979588 15.77167702 -14.01810716 14.22629874 -12.125 12.625 C-7.97403525 9.09628613 -4.50071044 5.16026458 -1 1 C-0.67 0.67 -0.34 0.34 0 0 Z " fill="#189E4B" transform="translate(160,35)"/>
<path d="M0 0 C1.258125 -0.04125 2.51625 -0.0825 3.8125 -0.125 C4.52019531 -0.14820313 5.22789063 -0.17140625 5.95703125 -0.1953125 C8 0 8 0 11 2 C11.25660094 5.07921132 11.39431504 7.21136993 10 10 C10.89163577 12.11683841 10.89163577 12.11683841 12 14 C9.5625 13.625 9.5625 13.625 7 13 C6.67 12.34 6.34 11.68 6 11 C5.01 10.67 4.02 10.34 3 10 C3 11.32 3 12.64 3 14 C2.01 14 1.02 14 0 14 C0 9.38 0 4.76 0 0 Z " fill="#676768" transform="translate(47,156)"/>
<path d="M0 0 C0.99 0 1.98 0 3 0 C3 4.62 3 9.24 3 14 C-3.8359375 14.29296875 -3.8359375 14.29296875 -6 14 C-8.14915785 10.77626323 -8.38286803 9.73296326 -8 6 C-6 4 -6 4 -2.875 3.875 C-1.92625 3.91625 -0.9775 3.9575 0 4 C0 2.68 0 1.36 0 0 Z " fill="#545455" transform="translate(188,156)"/>
<path d="M0 0 C1.1055189 0.93590504 2.20935453 1.87379858 3.3125 2.8125 C3.92738281 3.33457031 4.54226562 3.85664062 5.17578125 4.39453125 C6.86349999 5.8798683 8.49993317 7.32454074 10 9 C10 12.22234325 8.72090596 13.31487532 6.5625 15.75 C4 18 4 18 2 18 C0.59545452 11.88019467 -0.23268915 6.28260706 0 0 Z " fill="#E7E7E7" transform="translate(82,43)"/>
<path d="M0 0 C2.77987427 1.11500452 4.30988865 2.70576994 6.3828125 4.85546875 C7.08921875 5.57734375 7.795625 6.29921875 8.5234375 7.04296875 C10.1328125 8.85546875 10.1328125 8.85546875 10.1328125 9.85546875 C7.88252921 9.71407394 5.63259044 9.56718872 3.3828125 9.41796875 C1.50335938 9.29615234 1.50335938 9.29615234 -0.4140625 9.171875 C-3.05036303 8.93031353 -5.34756044 8.61262941 -7.8671875 7.85546875 C-6.3932704 4.41632884 -4.2602214 -0.32976609 0 0 Z " fill="#E9F5EC" transform="translate(140.8671875,102.14453125)"/>
<path d="M0 0 C3.63 0 7.26 0 11 0 C11 0.99 11 1.98 11 3 C8.36 3 5.72 3 3 3 C3 3.99 3 4.98 3 6 C5.31 6 7.62 6 10 6 C10 6.66 10 7.32 10 8 C7.69 8 5.38 8 3 8 C3 9.32 3 10.64 3 12 C5.64 12 8.28 12 11 12 C11 12.66 11 13.32 11 14 C7.37 14 3.74 14 0 14 C0 9.38 0 4.76 0 0 Z " fill="#757576" transform="translate(61,156)"/>
<path d="M0 0 C0.99 0 1.98 0 3 0 C3.84026396 1.76755526 4.67198722 3.53917263 5.5 5.3125 C5.9640625 6.29863281 6.428125 7.28476563 6.90625 8.30078125 C8 11 8 11 8 14 C7.01 14 6.02 14 5 14 C5 13.01 5 12.02 5 11 C2.69 11 0.38 11 -2 11 C-2 11.99 -2 12.98 -2 14 C-2.99 14 -3.98 14 -5 14 C-4.34580901 8.93001981 -2.1453591 4.58009223 0 0 Z " fill="#656566" transform="translate(118,156)"/>
<path d="M0 0 C6.06892629 -0.25287193 11.16200408 0.30167391 17 2 C15.55746343 5.36591866 13.66735273 7.51047079 11 10 C7.81326038 8.59698853 5.67778594 6.92234929 3.25 4.4375 C2.63640625 3.81746094 2.0228125 3.19742188 1.390625 2.55859375 C0 1 0 1 0 0 Z " fill="#EFEFEF" transform="translate(88,38)"/>
<path d="M0 0 C1.5056904 5.80766296 2.21824777 10.9981863 2 17 C0.8944811 16.06409496 -0.20935453 15.12620142 -1.3125 14.1875 C-1.92738281 13.66542969 -2.54226562 13.14335938 -3.17578125 12.60546875 C-4.85424679 11.12827531 -6.43882034 9.59960869 -8 8 C-6.48291727 4.46014029 -4.24676932 0 0 0 Z " fill="#F2F9F4" transform="translate(154,89)"/>
<path d="M0 0 C0.928125 0.20625 1.85625 0.4125 2.8125 0.625 C2.8125 1.615 2.8125 2.605 2.8125 3.625 C-0.1575 3.13 -0.1575 3.13 -3.1875 2.625 C-1.79433123 5.41133754 -0.02769484 5.55992694 2.8125 6.625 C3.8125 7.625 3.8125 7.625 3.875 10.1875 C3.854375 10.991875 3.83375 11.79625 3.8125 12.625 C1.07344655 13.99452673 -1.15837332 13.75121361 -4.1875 13.625 C-4.8475 13.295 -5.5075 12.965 -6.1875 12.625 C-5.8575 11.635 -5.5275 10.645 -5.1875 9.625 C-3.2075 10.285 -1.2275 10.945 0.8125 11.625 C0.8125 10.635 0.8125 9.645 0.8125 8.625 C-1.1675 7.965 -3.1475 7.305 -5.1875 6.625 C-5.5175 4.975 -5.8475 3.325 -6.1875 1.625 C-3.1875 -0.375 -3.1875 -0.375 0 0 Z " fill="#666667" transform="translate(80.1875,156.375)"/>
<path d="M0 0 C3 0.25 3 0.25 5 2.25 C5 3.57 5 4.89 5 6.25 C4.01 6.58 3.02 6.91 2 7.25 C2.99 7.58 3.98 7.91 5 8.25 C4.67 8.91 4.34 9.57 4 10.25 C-1.42857143 10.61190476 -1.42857143 10.61190476 -3.875 9.0625 C-5.38332602 6.63241919 -5.36023622 5.05984248 -5 2.25 C-3 0.25 -3 0.25 0 0 Z " fill="#636364" transform="translate(173,159.75)"/>
<path d="M0 0 C0.99 0 1.98 0 3 0 C3.33 2.31 3.66 4.62 4 7 C4.66 7 5.32 7 6 7 C6.33 4.69 6.66 2.38 7 0 C7.99 0 8.98 0 10 0 C10 3.3 10 6.6 10 10 C7.03 10 4.06 10 1 10 C-0.60725635 6.78548731 -0.05748185 3.56387464 0 0 Z " fill="#636364" transform="translate(148,160)"/>
<path d="M0 0 C3.63 0 7.26 0 11 0 C11 0.99 11 1.98 11 3 C9.68 3 8.36 3 7 3 C7 6.63 7 10.26 7 14 C6.01 14 5.02 14 4 14 C4 10.37 4 6.74 4 3 C2.68 3 1.36 3 0 3 C0 2.01 0 1.02 0 0 Z " fill="#69696A" transform="translate(86,156)"/>
<path d="M0 0 C3 0.125 3 0.125 4 1.125 C4.04080783 3.12458364 4.04254356 5.12545254 4 7.125 C1.125 7.75 1.125 7.75 -2 8.125 C-4 6.125 -4 6.125 -4.1875 3.5625 C-3.91067812 -0.03618446 -3.67800108 0.15325004 0 0 Z " fill="#676768" transform="translate(62,187.875)"/>
<path d="M0 0 C1.4540625 0.0309375 1.4540625 0.0309375 2.9375 0.0625 C2.9375 0.7225 2.9375 1.3825 2.9375 2.0625 C1.9475 2.3925 0.9575 2.7225 -0.0625 3.0625 C1.2575 3.7225 2.5775 4.3825 3.9375 5.0625 C3.6075 6.7125 3.2775 8.3625 2.9375 10.0625 C0.9575 10.0625 -1.0225 10.0625 -3.0625 10.0625 C-3.3925 9.0725 -3.7225 8.0825 -4.0625 7.0625 C-1.5875 7.5575 -1.5875 7.5575 0.9375 8.0625 C0.9375 7.4025 0.9375 6.7425 0.9375 6.0625 C-0.3825 5.7325 -1.7025 5.4025 -3.0625 5.0625 C-3.625 3.125 -3.625 3.125 -4.0625 1.0625 C-3.0625 0.0625 -3.0625 0.0625 0 0 Z " fill="#686869" transform="translate(142.0625,159.9375)"/>
<path d="M0 0 C1.98 0.99 3.96 1.98 6 3 C5.8125 5.375 5.8125 5.375 5 8 C2.4375 9.3125 2.4375 9.3125 0 10 C-2.14915785 6.77626323 -2.38286803 5.73296326 -2 2 C-1.34 1.34 -0.68 0.68 0 0 Z " fill="#636364" transform="translate(182,160)"/>
<path d="M0 0 C1.99954746 -0.04254356 4.00041636 -0.04080783 6 0 C7 1 7 1 7.1875 3.4375 C7 6 7 6 5 8 C2.375 8.125 2.375 8.125 0 8 C0 5.36 0 2.72 0 0 Z " fill="#626263" transform="translate(174,188)"/>
<path d="M0 0 C1.98 0 3.96 0 6 0 C6 0.66 6 1.32 6 2 C5.01 2.33 4.02 2.66 3 3 C4.32 3.66 5.64 4.32 7 5 C6.67 6.65 6.34 8.3 6 10 C4.02 10 2.04 10 0 10 C0 9.01 0 8.02 0 7 C1.32 7 2.64 7 4 7 C2.35 6.01 0.7 5.02 -1 4 C-0.67 2.68 -0.34 1.36 0 0 Z " fill="#636364" transform="translate(129,160)"/>
<path d="M0 0 C1.4540625 0.0309375 1.4540625 0.0309375 2.9375 0.0625 C2.2775 0.7225 1.6175 1.3825 0.9375 2.0625 C-0.0525 2.0625 -1.0425 2.0625 -2.0625 2.0625 C-2.0625 3.0525 -2.0625 4.0425 -2.0625 5.0625 C-1.4025 5.0625 -0.7425 5.0625 -0.0625 5.0625 C-0.0625 4.4025 -0.0625 3.7425 -0.0625 3.0625 C0.9275 3.0625 1.9175 3.0625 2.9375 3.0625 C2.6075 4.7125 2.2775 6.3625 1.9375 8.0625 C-0.4375 8.1875 -0.4375 8.1875 -3.0625 8.0625 C-3.7225 7.4025 -4.3825 6.7425 -5.0625 6.0625 C-4.33395709 0.0884481 -4.33395709 0.0884481 0 0 Z " fill="#6F6F70" transform="translate(22.0625,187.9375)"/>
<path d="M0 0 C1.98 0 3.96 0 6 0 C4.68 0.33 3.36 0.66 2 1 C2 1.66 2 2.32 2 3 C3.32 3 4.64 3 6 3 C6.33 4.65 6.66 6.3 7 8 C4.69 8 2.38 8 0 8 C0 5.36 0 2.72 0 0 Z " fill="#6F6F70" transform="translate(27,188)"/>
<path d="M0 0 C0.66 0 1.32 0 2 0 C2 1.98 2 3.96 2 6 C2.99 6 3.98 6 5 6 C5 4.02 5 2.04 5 0 C5.66 0 6.32 0 7 0 C7.04241723 2.33294775 7.04092937 4.66702567 7 7 C6 8 6 8 3.5 8.125 C1 8 1 8 0 7 C-0.04092937 4.66702567 -0.04241723 2.33294775 0 0 Z " fill="#6F6F70" transform="translate(99,188)"/>
<path d="M0 0 C1.98 0 3.96 0 6 0 C6 1.65 6 3.3 6 5 C4.68 5 3.36 5 2 5 C2 5.99 2 6.98 2 8 C1.34 8 0.68 8 0 8 C0 5.36 0 2.72 0 0 Z " fill="#7A7A7A" transform="translate(91,188)"/>
<path d="M0 0 C1.98 0 3.96 0 6 0 C6 1.65 6 3.3 6 5 C4.68 5 3.36 5 2 5 C2 5.99 2 6.98 2 8 C1.34 8 0.68 8 0 8 C0 5.36 0 2.72 0 0 Z " fill="#7C7C7D" transform="translate(50,188)"/>
<path d="M0 0 C1.98 0 3.96 0 6 0 C4.68 0.33 3.36 0.66 2 1 C2 1.66 2 2.32 2 3 C3.32 3 4.64 3 6 3 C6 4.65 6 6.3 6 8 C4.02 8 2.04 8 0 8 C0 5.36 0 2.72 0 0 Z " fill="#69696A" transform="translate(183,188)"/>
<path d="M0 0 C0.99 0.33 1.98 0.66 3 1 C3 2.65 3 4.3 3 6 C0.26094655 7.36952673 -1.97087332 7.12621361 -5 7 C-5.66 6.67 -6.32 6.34 -7 6 C-6.67 5.01 -6.34 4.02 -6 3 C-4.02 3.66 -2.04 4.32 0 5 C-0.2784375 4.0409375 -0.2784375 4.0409375 -0.5625 3.0625 C-0.706875 2.381875 -0.85125 1.70125 -1 1 C-0.67 0.67 -0.34 0.34 0 0 Z " fill="#5D5D5E" transform="translate(81,163)"/>
<path d="M0 0 C-0.33 0.99 -0.66 1.98 -1 3 C-0.12516085 5.16715557 -0.12516085 5.16715557 1 7 C-1.4375 6.625 -1.4375 6.625 -4 6 C-4.33 5.34 -4.66 4.68 -5 4 C-5.99 3.34 -6.98 2.68 -8 2 C-8 1.34 -8 0.68 -8 0 C-4.71303767 -0.79953138 -3.28976808 -1.09658936 0 0 Z " fill="#676768" transform="translate(58,163)"/>
<path d="M0 0 C0 1.32 0 2.64 0 4 C-0.99 4.33 -1.98 4.66 -3 5 C-3.33 6.98 -3.66 8.96 -4 11 C-4.66 11 -5.32 11 -6 11 C-6 7.7 -6 4.4 -6 1 C-2 0 -2 0 0 0 Z " fill="#686869" transform="translate(167,159)"/>
<path d="M0 0 C0.66 0 1.32 0 2 0 C5 5.75 5 5.75 5 8 C4.34 8 3.68 8 3 8 C3 7.34 3 6.68 3 6 C1.02 6.66 -0.96 7.32 -3 8 C-2.45276317 4.62537285 -1.9451 2.91765 0 0 Z " fill="#707071" transform="translate(134,188)"/>
<path d="M0 0 C2.89932357 2.39509338 3.50168276 4.31245243 4 8 C3.01 8 2.02 8 1 8 C1 7.01 1 6.02 1 5 C-1.31 5 -3.62 5 -6 5 C-6 4.34 -6 3.68 -6 3 C-4.35 3 -2.7 3 -1 3 C-0.67 2.01 -0.34 1.02 0 0 Z " fill="#5C5C5D" transform="translate(122,162)"/>
<path d="M0 0 C2 2 2 2 2 5 C0.35 5 -1.3 5 -3 5 C-3 6.65 -3 8.3 -3 10 C-3.99 10 -4.98 10 -6 10 C-5.125 5.25 -5.125 5.25 -4 3 C-3.01 2.67 -2.02 2.34 -1 2 C-0.67 1.34 -0.34 0.68 0 0 Z " fill="#8D8D8E" transform="translate(119,160)"/>
<path d="M0 0 C1.2065625 0.0309375 1.2065625 0.0309375 2.4375 0.0625 C1.1175 0.3925 -0.2025 0.7225 -1.5625 1.0625 C-1.5625 1.7225 -1.5625 2.3825 -1.5625 3.0625 C-0.2425 3.3925 1.0775 3.7225 2.4375 4.0625 C2.1075 5.3825 1.7775 6.7025 1.4375 8.0625 C-0.2125 7.7325 -1.8625 7.4025 -3.5625 7.0625 C-2.9025 6.4025 -2.2425 5.7425 -1.5625 5.0625 C-2.2225 3.7425 -2.8825 2.4225 -3.5625 1.0625 C-2.5625 0.0625 -2.5625 0.0625 0 0 Z " fill="#656566" transform="translate(71.5625,187.9375)"/>
<path d="M0 0 C0.66 0 1.32 0 2 0 C2 0.99 2 1.98 2 3 C3.32 3 4.64 3 6 3 C6.33 2.01 6.66 1.02 7 0 C7 2.64 7 5.28 7 8 C6.67 6.68 6.34 5.36 6 4 C4.68 4 3.36 4 2 4 C2 5.32 2 6.64 2 8 C1.34 8 0.68 8 0 8 C0 5.36 0 2.72 0 0 Z " fill="#606061" transform="translate(157,188)"/>
<path d="M0 0 C0.66 0 1.32 0 2 0 C2 2.97 2 5.94 2 9 C-1.465 7.02 -1.465 7.02 -5 5 C-5 4.67 -5 4.34 -5 4 C-3.35 4 -1.7 4 0 4 C0 2.68 0 1.36 0 0 Z " fill="#606061" transform="translate(188,156)"/>
<path d="M0 0 C0.66 0 1.32 0 2 0 C2 0.99 2 1.98 2 3 C4.64 3 7.28 3 10 3 C10 3.66 10 4.32 10 5 C6.7 5 3.4 5 0 5 C0 3.35 0 1.7 0 0 Z " fill="#59595A" transform="translate(62,165)"/>
<path d="M0 0 C1.98 0.495 1.98 0.495 4 1 C3.67 2.65 3.34 4.3 3 6 C1.68 5.67 0.36 5.34 -1 5 C-0.67 3.35 -0.34 1.7 0 0 Z " fill="#F2F2F2" transform="translate(184,162)"/>
<path d="M0 0 C0.66 0 1.32 0 2 0 C2 1.98 2 3.96 2 6 C3.32 6 4.64 6 6 6 C6 6.66 6 7.32 6 8 C4.02 8 2.04 8 0 8 C0 5.36 0 2.72 0 0 Z " fill="#69696A" transform="translate(191,188)"/>
<path d="M0 0 C1.65 0 3.3 0 5 0 C4.01 0.33 3.02 0.66 2 1 C2 1.99 2 2.98 2 4 C2.99 4.33 3.98 4.66 5 5 C4.01 5 3.02 5 2 5 C2 5.99 2 6.98 2 8 C1.34 8 0.68 8 0 8 C0 5.36 0 2.72 0 0 Z " fill="#5E5E5F" transform="translate(123,188)"/>
<path d="M0 0 C0.66 0 1.32 0 2 0 C1.67 1.65 1.34 3.3 1 5 C-0.98 5 -2.96 5 -5 5 C-5.33 4.01 -5.66 3.02 -6 2 C-3.03 2.495 -3.03 2.495 0 3 C0 2.01 0 1.02 0 0 Z " fill="#626263" transform="translate(144,165)"/>
<path d="M0 0 C1.65 0 3.3 0 5 0 C5 1.32 5 2.64 5 4 C3.35 4 1.7 4 0 4 C0 2.68 0 1.36 0 0 Z " fill="#F0F0F0" transform="translate(50,159)"/>
<path d="M0 0 C0.99 0 1.98 0 3 0 C3.33 1.32 3.66 2.64 4 4 C2.35 4.33 0.7 4.66 -1 5 C-0.67 3.35 -0.34 1.7 0 0 Z " fill="#F2F2F2" transform="translate(61,189)"/>
<path d="M0 0 C1.98 0.495 1.98 0.495 4 1 C4 1.66 4 2.32 4 3 C4.66 3.33 5.32 3.66 6 4 C3.69 4 1.38 4 -1 4 C-0.67 2.68 -0.34 1.36 0 0 Z " fill="#9F9F9F" transform="translate(172,162)"/>
<path d="M0 0 C1.32 0.33 2.64 0.66 4 1 C4 2.32 4 3.64 4 5 C2.68 5 1.36 5 0 5 C0 3.35 0 1.7 0 0 Z " fill="#EAEAEA" transform="translate(175,189)"/>
<path d="M0 0 C0.66 0.33 1.32 0.66 2 1 C1.67 2.32 1.34 3.64 1 5 C-0.32 4.67 -1.64 4.34 -3 4 C-3 3.01 -3 2.02 -3 1 C-2.01 0.67 -1.02 0.34 0 0 Z " fill="#AEAEAE" transform="translate(128,188)"/>
<path d="M0 0 C1.98 0.495 1.98 0.495 4 1 C3.01 1.495 3.01 1.495 2 2 C2.33 2.99 2.66 3.98 3 5 C1.68 4.67 0.36 4.34 -1 4 C-0.67 2.68 -0.34 1.36 0 0 Z " fill="#EDEDED" transform="translate(20,189)"/>
</svg>
