<?xml version="1.0" encoding="UTF-8"?>
<svg version="1.1" xmlns="http://www.w3.org/2000/svg" width="268" height="188">
<path d="M0 0 C88.44 0 176.88 0 268 0 C268 62.04 268 124.08 268 188 C179.56 188 91.12 188 0 188 C0 125.96 0 63.92 0 0 Z " fill="#FDFDFD" transform="translate(0,0)"/>
<path d="M0 0 C2.23586018 1.54629583 4.04432893 3.09865313 6 5 C7.65 4.34 9.3 3.68 11 3 C11 10.26 11 17.52 11 25 C3.41 25 -4.18 25 -12 25 C-12 27.31 -12 29.62 -12 32 C-5.4 32 1.2 32 8 32 C5.96693855 41.14877654 4.49059458 45.20046574 -3.00390625 50.38671875 C-9.33064836 53.7073845 -16.015814 54.06635008 -23 53 C-30.60029232 50.44550745 -36.61023459 46.75907587 -41 40 C-41.40992188 39.45214844 -41.81984375 38.90429688 -42.2421875 38.33984375 C-46.46982289 31.70682961 -45.84037558 23.51836006 -45 16 C-42.66108441 7.4314727 -36.57366197 1.27797545 -29.02734375 -3.16015625 C-19.05081696 -7.56457773 -9.21089553 -4.96074432 0 0 Z " fill="#FEFDFB" transform="translate(257,69)"/>
<path d="M0 0 C6.38804339 3.92191099 10.93053479 9.87363561 13.296875 16.97265625 C13.296875 19.61265625 13.296875 22.25265625 13.296875 24.97265625 C-0.563125 24.97265625 -14.423125 24.97265625 -28.703125 24.97265625 C-26.08581777 35.22258093 -26.08581777 35.22258093 -19.4375 42.60546875 C-14.28678917 45.18082416 -7.9702421 45.00162374 -2.5078125 43.28125 C1.81756831 41.04366122 3.96742076 38.07249572 6.296875 33.97265625 C8.734375 34.34765625 8.734375 34.34765625 11.296875 34.97265625 C11.626875 35.63265625 11.956875 36.29265625 12.296875 36.97265625 C7.62986031 43.58025094 3.57862864 49.13226655 -4.703125 50.97265625 C-11.34926063 51.55368345 -17.90688411 51.61986715 -23.703125 47.97265625 C-30.18961136 42.42990049 -33.93624161 35.44212647 -35.1171875 27.01953125 C-35.47623927 19.64952115 -34.0241361 13.98675583 -29.703125 7.97265625 C-21.84769687 -0.56378682 -11.39903861 -4.33229358 0 0 Z " fill="#0C0C0C" transform="translate(69.703125,77.02734375)"/>
<path d="M0 0 C3.16356288 2.16308033 6.12236154 4.47052027 9 7 C8.75 8.875 8.75 8.875 8 11 C5.9375 12.25 5.9375 12.25 4 13 C3.53851563 12.61328125 3.07703125 12.2265625 2.6015625 11.828125 C-4.99112175 5.76598184 -12.45861556 2.1898304 -22.3359375 2.62109375 C-30.27778714 3.75065301 -36.73572801 8.05838376 -42 14 C-47.31126419 21.24127287 -47.11424155 30.44904025 -46 39 C-42.98043121 47.73813571 -37.9999993 53.04584891 -29.9375 57.3125 C-23.24022369 60.06356973 -16.07696648 60.21524962 -9.15625 58.15234375 C-3.20357409 55.50770611 1.01510597 51.82861063 4 46 C4.66 43.69 5.32 41.38 6 39 C-0.6 39 -7.2 39 -14 39 C-14 36.69 -14 34.38 -14 32 C-6.41 32 1.18 32 9 32 C9.12375 35.135 9.2475 38.27 9.375 41.5 C9.42962402 42.47130859 9.48424805 43.44261719 9.54052734 44.44335938 C9.65335246 50.40731931 8.51848803 53.85199278 4.62158203 58.40087891 C2.64743321 60.3476833 0.74680354 61.72784173 -1.75 62.9375 C-2.50796875 63.31777344 -3.2659375 63.69804688 -4.046875 64.08984375 C-5.01367188 64.54037109 -5.01367188 64.54037109 -6 65 C-6.99 65.495 -6.99 65.495 -8 66 C-19.66465242 67.23953242 -31.36619869 67.43310868 -41 60 C-48.68422078 53.4412459 -53.42185663 45.02793513 -54.546875 34.9453125 C-55.32784991 23.39662962 -52.43961574 14.43319869 -44.8828125 5.49609375 C-33.09375919 -5.89439726 -14.40217008 -7.97057897 0 0 Z " fill="#FDC108" transform="translate(259,62)"/>
<path d="M0 0 C3.62655344 2.90124275 5.81111058 4.75444376 8.5 8.25 C12.09742985 12.85389415 15.74801224 17.40736272 19.4375 21.9375 C19.99840332 22.62755127 20.55930664 23.31760254 21.13720703 24.02856445 C25.01006386 28.79164905 28.89881729 33.54127846 32.8046875 38.27734375 C35.92194972 42.14341451 38.95100582 46.07986463 42 50 C42.33 33.5 42.66 17 43 0 C44.98 0 46.96 0 49 0 C49 22.44 49 44.88 49 68 C45.29632403 65.03705922 43.02284885 63.03390866 40.25 59.4375 C37.39130034 55.77965165 34.50822394 52.15083387 31.5625 48.5625 C30.80839844 47.64210937 30.05429688 46.72171875 29.27734375 45.7734375 C27.79213399 43.96469148 26.30523376 42.15733182 24.81640625 40.3515625 C18.75705818 32.98529621 12.89823206 25.50684081 7 18 C6.67 34.5 6.34 51 6 68 C4.02 68 2.04 68 0 68 C0 45.56 0 23.12 0 0 Z " fill="#C31313" transform="translate(147,59)"/>
<path d="M0 0 C11.22 0 22.44 0 34 0 C34 2.31 34 4.62 34 7 C29.05 7 24.1 7 19 7 C19 27.13 19 47.26 19 68 C17.02 68 15.04 68 13 68 C13 47.87 13 27.74 13 7 C8.71 7 4.42 7 0 7 C0 4.69 0 2.38 0 0 Z " fill="#0C0C0C" transform="translate(0,59)"/>
<path d="M0 0 C3.16484654 1.71787077 4.92411669 3.1889094 6.93359375 6.203125 C5.94359375 7.193125 4.95359375 8.183125 3.93359375 9.203125 C-0.94140625 7.328125 -0.94140625 7.328125 -2.06640625 6.203125 C-6.08297768 5.97394258 -6.08297768 5.97394258 -10.06640625 6.203125 C-12.41454359 8.13479898 -12.41454359 8.13479898 -12.44140625 11.578125 C-11.99500325 15.89335404 -11.27204823 16.46159954 -8.06640625 19.203125 C-6.2580816 20.36789882 -4.42290004 21.49177012 -2.56640625 22.578125 C1.76608109 25.30834399 4.8910394 27.33990035 6.93359375 32.203125 C7.73778266 36.99366972 7.43347626 40.23906588 5.18359375 44.578125 C1.24240841 49.17617457 -1.69193376 51.00525229 -7.81640625 51.515625 C-12.5585065 51.45438016 -15.23788242 49.95966216 -19.06640625 47.203125 C-20.50390625 44.953125 -20.50390625 44.953125 -21.06640625 43.203125 C-19.74640625 42.213125 -18.42640625 41.223125 -17.06640625 40.203125 C-16.22078125 40.863125 -15.37515625 41.523125 -14.50390625 42.203125 C-10.55134895 44.5027947 -8.56187691 44.86912065 -4.06640625 44.203125 C-0.72351813 42.060248 -0.17834582 40.70685309 0.68359375 36.828125 C-0.2812692 32.16462073 -1.93543286 31.22987188 -5.765625 28.671875 C-6.52488281 28.1871875 -7.28414062 27.7025 -8.06640625 27.203125 C-17.37700937 20.74337912 -17.37700937 20.74337912 -19.06640625 16.203125 C-19.61781155 11.89428647 -19.54672089 8.36599203 -17.87890625 4.328125 C-13.14894699 -1.21734448 -6.831548 -2.6344722 0 0 Z " fill="#101010" transform="translate(107.06640625,76.796875)"/>
<path d="M0 0 C1.65 0 3.3 0 5 0 C5 6.27 5 12.54 5 19 C8.3 19 11.6 19 15 19 C15 20.65 15 22.3 15 24 C11.7 24 8.4 24 5 24 C5 38.85 5 53.7 5 69 C3.35 69 1.7 69 0 69 C0 54.15 0 39.3 0 24 C-2.97 24 -5.94 24 -9 24 C-9 22.35 -9 20.7 -9 19 C-6.03 19 -3.06 19 0 19 C0 12.73 0 6.46 0 0 Z " fill="#060606" transform="translate(126,58)"/>
<path d="M0 0 C5.22238745 2.90458628 7.87639392 6.44396717 9.7734375 12.09765625 C9.7734375 12.75765625 9.7734375 13.41765625 9.7734375 14.09765625 C-1.7765625 14.09765625 -13.3265625 14.09765625 -25.2265625 14.09765625 C-23.98864787 7.90808312 -22.22081962 4.60352387 -17.1640625 0.78515625 C-11.35603603 -2.55136959 -6.1820843 -2.50537101 0 0 Z " fill="#F2F2F2" transform="translate(67.2265625,82.90234375)"/>
</svg>
